<svg xmlns="http://www.w3.org/2000/svg" xmlns:xlink="http://www.w3.org/1999/xlink" id="Layer_1" x="0px" y="0px" viewBox="0 0 55.3 70.2" style="enable-background:new 0 0 55.3 70.2;" xml:space="preserve"><g id="Group_11" transform="translate(-1240.973 -1784.325)">	<g id="Group_8" transform="translate(1240.973 1784.325)">		<path id="Path_54" d="M45.8,14h-8.9l-0.1,0.2l0.2,0.2c0.3,0.3,0.6,0.6,0.7,1h8c1.1,0,2.1,0.9,2.1,2.1v41.6c0,1.1-0.9,2.1-2.1,2.1   H9.5c-1.1,0-2.1-0.9-2.1-2.1V17.5c0-1.1,0.9-2.1,2.1-2.1h8c0.1-0.4,0.4-0.8,0.7-1.1l0.2-0.2L18.4,14H9.5c-2,0-3.5,1.6-3.5,3.5   v41.6c0,2,1.6,3.5,3.5,3.5c0,0,0,0,0,0h36.2c2,0,3.5-1.6,3.5-3.5V17.5C49.3,15.6,47.7,14,45.8,14z"></path>		<path id="Path_55" d="M43.3,17.9h-6c-0.1,0.1-0.2,0.2-0.3,0.3l-0.2,0.1h6.4c1.1,0,2.1,0.9,2.1,2.1v35.7c0,1.1-0.9,2.1-2.1,2.1H12   c-1.1,0-2.1-0.9-2.1-2.1V20.4c0-1.1,0.9-2.1,2.1-2.1h6.5l-0.2-0.2c-0.1-0.1-0.2-0.2-0.3-0.3h-6c-1.4,0-2.5,1.1-2.6,2.6v35.7   c0,1.4,1.1,2.5,2.6,2.6h31.3c1.4,0,2.6-1.1,2.6-2.6v0V20.4C45.8,19,44.7,17.9,43.3,17.9C43.3,17.9,43.3,17.9,43.3,17.9z"></path>		<path id="Path_56" d="M27.6,12.2c-2.2,0-4.1,1.8-4.1,4.1c0,2.2,1.8,4.1,4.1,4.1c2.2,0,4.1-1.8,4.1-4.1c0,0,0,0,0,0   C31.7,14,29.9,12.2,27.6,12.2z M35.8,15.2c-0.4-0.3-0.5-0.9-0.3-1.3l0.2-0.4c0.2-0.6,0-1.3-0.6-1.5c0,0-0.1,0-0.1,0l-0.4-0.1   c-0.5-0.1-0.8-0.6-0.8-1.1v-0.5c0-0.6-0.6-1.1-1.2-1.1c0,0-0.1,0-0.1,0l-0.4,0.1c-0.5,0.1-1-0.1-1.2-0.6l-0.2-0.4   c-0.3-0.6-1-0.8-1.6-0.5c0,0-0.1,0-0.1,0.1l-0.4,0.2c-0.4,0.3-0.9,0.3-1.3,0l-0.4-0.3c-0.5-0.4-1.2-0.3-1.6,0.3   c0,0-0.1,0.1-0.1,0.1l-0.2,0.4c-0.2,0.4-0.7,0.7-1.2,0.6l-0.4-0.1c-0.6-0.1-1.2,0.3-1.4,1c0,0,0,0.1,0,0.1l0,0.4   c0,0.5-0.4,0.9-0.8,1.1l-0.4,0.1c-0.6,0.2-1,0.8-0.8,1.4c0,0,0,0.1,0.1,0.1l0.2,0.4c0.2,0.5,0.1,1-0.3,1.3l-0.3,0.3   c-0.5,0.4-0.5,1.1-0.1,1.6c0,0,0.1,0.1,0.1,0.1l0.3,0.3c0.4,0.3,0.5,0.9,0.3,1.3l-0.2,0.4c-0.2,0.6,0,1.3,0.6,1.5   c0,0,0.1,0,0.1,0.1l0.4,0.1c0.5,0.1,0.8,0.6,0.8,1.1l0,0.4c0,0.6,0.6,1.1,1.2,1.1c0,0,0.1,0,0.1,0l0.4-0.1c0.5-0.1,1,0.1,1.2,0.6   l0.2,0.4c0.3,0.6,1,0.8,1.6,0.5c0,0,0.1,0,0.1-0.1l0.4-0.3c0.4-0.3,0.9-0.3,1.3,0l0.4,0.3c0.5,0.4,1.2,0.3,1.6-0.3   c0,0,0.1-0.1,0.1-0.1l0.2-0.4c0.2-0.4,0.7-0.7,1.2-0.6l0.4,0.1c0.6,0.1,1.2-0.3,1.3-1c0,0,0-0.1,0-0.1l0-0.4   c0-0.5,0.4-0.9,0.8-1.1l0.4-0.1c0.6-0.2,1-0.8,0.8-1.4c0,0,0-0.1,0-0.1l-0.2-0.4c-0.2-0.5-0.1-1,0.3-1.3l0.3-0.3   c0.5-0.4,0.5-1.1,0.1-1.6c0,0-0.1-0.1-0.1-0.1L35.8,15.2z M27.6,21.9c-3.1,0-5.6-2.5-5.6-5.6s2.5-5.6,5.6-5.6s5.6,2.5,5.6,5.6   C33.3,19.4,30.7,21.9,27.6,21.9L27.6,21.9z M18.9,31.7l2.7-6.8c0.4,0.2,0.8,0.3,1.2,0.3c0.2,0,0.3,0,0.5-0.1h0.1l0,0.1   c0.5,0.9,1.5,1.5,2.5,1.4c0.3,0,0.6,0,0.8-0.1l-2.9,7.2c0,0.1-0.2,0.2-0.3,0.2c-0.1,0-0.1-0.1-0.2-0.1L22,31.3   c0-0.1-0.1-0.1-0.2-0.1l-2.6,0.8c-0.1,0.1-0.3,0-0.3-0.1C18.9,31.9,18.9,31.8,18.9,31.7z M31.4,33.8l-2.9-7.2   c0.3,0.1,0.6,0.1,0.8,0.1c1,0,2-0.6,2.5-1.5l0-0.1h0.1c0.2,0,0.3,0,0.5,0.1c0.4,0,0.8-0.1,1.2-0.3l2.7,6.9c0.1,0.1,0,0.3-0.1,0.4   c-0.1,0-0.1,0-0.2,0l-2.6-0.8c-0.1,0-0.2,0-0.2,0.1l-1.4,2.4C31.8,34,31.6,34,31.4,33.8C31.4,33.9,31.4,33.8,31.4,33.8L31.4,33.8z   "></path>		<path id="Path_57" d="M17.9,38.4l0.5,1c0,0,0,0.1,0.1,0.1l1.1,0.2c0.1,0,0.1,0.1,0.1,0.1c0,0,0,0,0,0.1l-0.8,0.8c0,0,0,0.1,0,0.1   l0.2,1.1c0,0.1,0,0.1-0.1,0.1c0,0-0.1,0-0.1,0l-1-0.5c0,0-0.1,0-0.1,0l-1,0.5c0,0-0.1,0-0.1,0c0,0,0,0,0-0.1l0.2-1.1   c0,0,0-0.1,0-0.1L16,39.8c0,0,0-0.1,0-0.1c0,0,0,0,0.1,0l1.1-0.2c0,0,0.1,0,0.1-0.1l0.5-1C17.8,38.3,17.8,38.3,17.9,38.4   C17.9,38.3,17.9,38.3,17.9,38.4z"></path>		<path id="Path_58" d="M21.9,37.9l0.6,1.2c0,0,0.1,0.1,0.1,0.1l1.3,0.2c0.1,0,0.1,0.1,0.1,0.1c0,0,0,0,0,0.1L23,40.4   c0,0,0,0.1,0,0.1l0.2,1.3c0,0.1,0,0.1-0.1,0.1c0,0-0.1,0-0.1,0l-1.1-0.6c0,0-0.1,0-0.1,0l-1.1,0.6c-0.1,0-0.1,0-0.2-0.1   c0,0,0,0,0-0.1l0.2-1.3c0,0,0-0.1,0-0.1l-0.9-0.9c0,0,0-0.1,0-0.2c0,0,0,0,0.1,0l1.3-0.2c0,0,0.1,0,0.1-0.1l0.6-1.2   C21.7,37.8,21.8,37.8,21.9,37.9C21.9,37.8,21.9,37.8,21.9,37.9z"></path>		<path id="Path_59" d="M27.8,36.5l1,2c0,0.1,0.1,0.1,0.2,0.1l2.2,0.3c0.1,0,0.2,0.1,0.2,0.2c0,0,0,0.1-0.1,0.1l-1.6,1.5   c0,0-0.1,0.1-0.1,0.2l0.4,2.2c0,0.1-0.1,0.2-0.2,0.2c0,0-0.1,0-0.1,0l-1.9-1c-0.1,0-0.1,0-0.2,0l-1.9,1c-0.1,0.1-0.2,0-0.3-0.1   c0,0,0-0.1,0-0.1l0.4-2.2c0-0.1,0-0.1-0.1-0.2l-1.6-1.5c-0.1-0.1-0.1-0.2,0-0.3c0,0,0.1-0.1,0.1-0.1l2.2-0.3   c0.1,0,0.1-0.1,0.2-0.1l1-2C27.5,36.4,27.6,36.3,27.8,36.5C27.8,36.4,27.8,36.4,27.8,36.5z"></path>		<path id="Path_60" d="M33.5,37.9l0.6,1.2c0,0,0.1,0.1,0.1,0.1l1.3,0.2c0.1,0,0.1,0.1,0.1,0.1c0,0,0,0.1,0,0.1l-0.9,0.9   c0,0,0,0.1,0,0.1l0.2,1.3c0,0.1,0,0.1-0.1,0.1c0,0-0.1,0-0.1,0l-1.1-0.6c0,0-0.1,0-0.1,0l-1.1,0.6c-0.1,0-0.1,0-0.2-0.1   c0,0,0,0,0-0.1l0.2-1.3c0,0,0-0.1,0-0.1l-0.9-0.9c0,0,0-0.1,0-0.2c0,0,0,0,0.1,0l1.3-0.2c0,0,0.1,0,0.1-0.1l0.6-1.2   C33.3,37.8,33.4,37.8,33.5,37.9C33.5,37.8,33.5,37.8,33.5,37.9z"></path>		<path id="Path_61" d="M37.4,38.4l0.5,1c0,0,0,0.1,0.1,0.1l1.1,0.2c0.1,0,0.1,0.1,0.1,0.1c0,0,0,0,0,0.1l-0.8,0.7c0,0,0,0.1,0,0.1   l0.2,1c0,0.1,0,0.1-0.1,0.1c0,0,0,0-0.1,0l-0.9-0.5c0,0-0.1,0-0.1,0l-0.9,0.5c-0.1,0-0.1,0-0.1,0c0,0,0,0,0-0.1l0.2-1   c0,0,0-0.1,0-0.1l-0.8-0.7c0,0,0-0.1,0-0.1c0,0,0,0,0.1,0l1.1-0.2c0,0,0.1,0,0.1-0.1l0.5-1C37.3,38.3,37.3,38.3,37.4,38.4   C37.4,38.4,37.4,38.4,37.4,38.4z"></path>		<path id="Path_62" d="M39.2,46.7H16.1c-0.3,0-0.5-0.2-0.5-0.5c0-0.3,0.2-0.5,0.5-0.5h23.1c0.3,0,0.5,0.2,0.5,0.5   C39.7,46.5,39.5,46.7,39.2,46.7L39.2,46.7z"></path>		<path id="Path_63" d="M39.2,49.8H16.1c-0.3,0-0.5-0.2-0.5-0.5c0-0.3,0.2-0.5,0.5-0.5h23.1c0.3,0,0.5,0.2,0.5,0.5   C39.7,49.6,39.5,49.8,39.2,49.8L39.2,49.8z"></path>		<path id="Path_64" d="M39.2,52.8H16.1c-0.3,0-0.5-0.2-0.5-0.5c0-0.3,0.2-0.5,0.5-0.5h23.1c0.3,0,0.5,0.2,0.5,0.5   C39.7,52.6,39.5,52.8,39.2,52.8L39.2,52.8z"></path>	</g></g></svg>